<svg xmlns="http://www.w3.org/2000/svg" width="104.001" height="19" viewBox="0 0 104.001 19">
    <g id="star" transform="translate(-201 -1945.633)">
        <path id="star1" fill="#ffb100" d="M12.5 7.036h7.2a.283.283 0 0 1 .174.52l-5.834 4.208 2.229 6.836a.3.3 0 0 1-.447.346l-5.834-4.237-5.808 4.233a.318.318 0 0 1-.472-.346l2.259-6.832L.133 7.556a.283.283 0 0 1 .174-.52h7.2L9.715.2a.3.3 0 0 1 .571 0z" transform="translate(200.999 1945.633)"/>
        <path id="star2" fill="#ffb100" d="M12.5 7.036h7.2a.283.283 0 0 1 .174.52l-5.834 4.208 2.229 6.836a.3.3 0 0 1-.447.346l-5.834-4.237-5.808 4.233a.318.318 0 0 1-.472-.346l2.259-6.832L.133 7.556a.283.283 0 0 1 .174-.52h7.2L9.715.2a.3.3 0 0 1 .571 0z" transform="translate(222.001 1945.633)"/>
        <path id="star3" fill="#ffb100" d="M12.5 7.036h7.2a.283.283 0 0 1 .174.52l-5.834 4.208 2.229 6.836a.3.3 0 0 1-.447.346l-5.834-4.237-5.808 4.233a.318.318 0 0 1-.472-.346l2.259-6.832L.133 7.556a.283.283 0 0 1 .174-.52h7.2L9.715.2a.3.3 0 0 1 .571 0z" transform="translate(243 1945.633)"/>
        <path id="star4" fill="#ffb100" d="M12.5 7.036h7.2a.283.283 0 0 1 .174.52l-5.834 4.208 2.229 6.836a.3.3 0 0 1-.447.346l-5.834-4.237-5.808 4.233a.318.318 0 0 1-.472-.346l2.259-6.832L.133 7.556a.283.283 0 0 1 .174-.52h7.2L9.715.2a.3.3 0 0 1 .571 0z" transform="translate(264 1945.633)"/>
        <path id="star5" fill="#ffb100" d="M12.5 7.036h7.2a.283.283 0 0 1 .174.52l-5.834 4.208 2.229 6.836a.3.3 0 0 1-.447.346l-5.834-4.237-5.808 4.233a.318.318 0 0 1-.472-.346l2.259-6.832L.133 7.556a.283.283 0 0 1 .174-.52h7.2L9.715.2a.3.3 0 0 1 .571 0z" transform="translate(285.001 1945.633)"/>
    </g>
</svg>
